<?xml version="1.0" encoding="UTF-8" standalone="no"?>
<svg
   width="1460.0441"
   height="362.51001"
   version="1.1"
   id="svg6"
   xmlns="http://www.w3.org/2000/svg"
   xmlns:svg="http://www.w3.org/2000/svg">
  <defs
     id="defs6" />
  <path
     fill="#52fecf"
     d="m 412.5959,294.46415 c 18.636,-2.584 34.467,-9.698 48.008,-22.93 20.428,-19.962 32.271,-47.769 42.733,-73.908 21.073,-52.651 38.73,-117.524001 79.447,-158.470401 q 1.167,-1.1518 2.362,-2.2747 1.195,-1.1229 2.417,-2.2161 1.222,-1.0933 2.471,-2.1563 1.248,-1.063 2.522,-2.0951 1.274,-1.0322 2.573,-2.0328 1.299,-1.0005 2.622,-1.969 1.323,-0.9685 2.669,-1.9043 1.347,-0.9358 2.715,-1.8383 1.369,-0.9025 2.76,-1.7713 1.39,-0.8687 2.801,-1.7031 1.411,-0.8344 2.843,-1.634 1.431,-0.7996 2.881,-1.5639 1.451,-0.7643 2.919,-1.4928 1.469,-0.7285 2.955,-1.4209 1.486,-0.6923 2.989,-1.3481 1.502,-0.6557 3.02,-1.2744 1.518,-0.6188003 3.051,-1.2001003 1.533,-0.5814 3.079,-1.125 1.547,-0.5437 3.106,-1.0493 1.56,-0.5056 3.131,-0.9728 1.571,-0.4673 3.154,-0.8959 1.582,-0.4287 3.174,-0.8184 1.592,-0.3897 3.194,-0.7404 1.601,-0.3506 3.21,-0.6619 1.61,-0.3113 3.226,-0.583 1.617,-0.2718 3.24,-0.5039 1.622,-0.2321 3.25,-0.4244 1.628,-0.1923 3.26,-0.3447 1.632,-0.1523 3.268,-0.2646 1.635,-0.1124 3.272,-0.1846 1.638,-0.0722 3.277,-0.1043 1.639,-0.0321 3.278,-0.0241 c 0.705,0.9743 1.111,1.9358 1.217,3.1336 0.728,8.2378003 1.099,54.8542003 -0.12,61.9900003 -0.13,0.7648 -0.434,1.4737 -0.803,2.1503 -7.186,2.0908 -14.687,2.9139 -21.726,5.6375 -21.125,8.1739 -37.306,28.871501 -47.878,48.078501 -3.458,6.283 -11.469,27.119 -15.291,30.812 -1.272,7.85 -43.78,113.765 -49.458,121.503 -1.855,6.457 -6.289,13.119 -9.908,18.735 -13.708,21.275 -29.812,39.744 -52.227,52.141 -21.334,11.799 -45.103,16.879 -69.341,17.538 l 0.99,-1.105 c 1.19,-5.362 1.318,-61.792 -0.332,-66.713 z"
     id="path1" />
  <path
     fill="#fefefe"
     d="m 411.9379,362.28215 c -23.189,1.308 -46.997,-6.228 -67.201,-17.164 -38.478,-20.827 -66.405,-58.176 -78.766,-99.894 -15.727,-53.073 -11.561,-114.23 15,-163.136201 q 0.9,-1.6901 1.841,-3.3577 0.941,-1.6675 1.922,-3.3115 0.982,-1.6439 2.003,-3.2633 1.022,-1.6194 2.083,-3.2133 1.06,-1.5938 2.16,-3.1612 1.1,-1.5673 2.237,-3.1072 1.138,-1.54 2.313,-3.0515 1.175,-1.5115 2.386,-2.9938 1.212,-1.4823 2.46,-2.9344 1.247,-1.4521 2.53,-2.8731 1.283,-1.4211 2.6,-2.8103 1.317,-1.3891 2.668,-2.7456 1.351,-1.3564 2.735,-2.6793 1.383,-1.3229 2.799,-2.6115 1.416,-1.2886 2.862,-2.542 1.447,-1.2535 2.924,-2.4711 1.477,-1.2175 2.984,-2.3985 1.506,-1.181 3.041,-2.3247 1.535,-1.1437 3.098,-2.2494 1.562,-1.1057 3.151,-2.1727 1.589,-1.0671 3.204,-2.0948 1.615,-1.0277 3.254,-2.0155 1.639,-0.9879 3.303,-1.9352 1.663,-0.9473 3.349,-1.8535 1.685,-0.9062 3.393,-1.7709 1.707,-0.8646 3.436,-1.687 1.728,-0.8225 3.476,-1.6023 1.747,-0.7798 3.514,-1.5166 1.766,-0.7367 3.55,-1.4299003 1.784,-0.6931 3.584,-1.3423 1.801,-0.6493 3.616,-1.2541 1.816,-0.6049 3.646,-1.165 c 37.259,-11.004 81.106,-7.2564 115.318,11.3897003 6.539,3.5637 28.74,17.0759 30.871,24.2978 -0.041,0.2136 -0.06,0.3864 -0.14,0.5851 -1.128,2.825 -43.322,44.8758 -47.949,47.2968 -0.189,-1.159 -0.957,-1.976 -1.746,-2.792 -12.992,-13.4353 -35.199,-19.3112 -53.294,-19.5307 -22.086,-0.2678 -42.607,9.2505 -58.2,24.5597 -23.259,22.836001 -33.283,56.456001 -33.542,88.494001 -0.258,31.971 9.534,66.59 32.402,89.795 15.586,15.815 33.681,24.061 55.783,24.22 1.65,4.921 1.522,61.351 0.332,66.713 z"
     id="path2" />
  <path
     fill="#fefefe"
     d="m 19.469898,11.541049 c 23.4715,-1.3635 47.6492,-0.1613 71.21,-0.1617 l 140.559002,0.0583 0.221,37.1199 c 0.014,7.9385 -0.598,16.9093 -6.58,22.8346 -3.68,3.6452 -8.78,5.7227 -13.836,6.5214 -11.39,1.7994 -24.49,0.4832 -36.072,0.4515 l -75.950002,-0.1867 c -9.012,8e-4 -20.408,-0.0277 -27.1834,6.8608 -2.4655,2.507 -3.49,5.58 -4.1203,8.988 -2.0033,10.830001 -0.4832,37.036001 -0.4255,49.327001 l 141.959202,0.055 c 0.081,11.439 1.42,24.154 -0.05,35.424 -1.007,7.721 -4.29,12.853 -10.412,17.513 -3.517,2.562 -8.624,3.308 -12.865,3.771 -9.531,1.042 -19.638,0.388 -29.23,0.365 l -52.654,-0.159 c -6.721002,-0.024 -14.077002,-0.665 -20.695002,0.426 -3.754,0.619 -7.8848,1.829 -10.6519,4.591 -2.9954,2.991 -4.4695,7.595 -5.0964,11.678 -1.5873,10.339 -0.4107,22.375 -0.3846,32.902 l 0.1962,67.71 c 0.0325,10.383 0.2874,21.066 -7.6922,28.989 -2.4728,2.455 -5.2733,3.861 -8.6415,4.677 -11.7574,2.847 -37.1588,1.069 -50.61470043,1.053 -0.5271,-21.636 -0.0786,-43.402 -0.0802,-65.052 l -0.006,-124.734 -0.0164,-82.671801 c -0.0483,-15.3346 -0.7868,-30.9946 0.0088,-46.2974 0.1993,-3.8339 1.00970003,-7.2693 2.84830003,-10.6614 3.5993,-6.6406 9.3639004,-9.3873 16.2546004,-11.3915 z"
     id="path3" />
  <path
     fill="#fefefe"
     d="m 1226.7679,11.815749 c 7.34,-1.203 15.81,-0.4693 23.27,-0.4605 l 44.04,0.0417 164.33,0.0315 c 0.23,0.3718 0.44,0.7622 0.59,1.1729 1.51,4.1224 0.68,36.0481 0.04,41.9017 -0.37,3.4414 -1.12,6.9839 -2.52,10.161 -2.25,5.0934 -6.93,10.2058 -12.25,12.1142 -7.51,2.6899 -17,1.4337 -24.9,1.6775 -15.54,0.479 -30.9,1.0985 -46.46,0.9473 -19.24,-0.1869 -70.5,-4.4294 -85.7,1.5488 -3.55,1.3941 -6.66,3.4273 -8.5,6.8503 -5.07,9.416 -2.04,32.981001 -2.15,44.344001 -0.04,3.561 0.24,7.699 -1.22,11.015 -0.03,0.065 -0.06,0.129 -0.09,0.193 l 149.97,0.057 c 0.32,0.478 0.58,0.966 0.76,1.517 1.98,6.116 0.71,36.396 -2.29,42.538 -2.74,5.597 -7.22,9.029 -13.08,10.925 -13.04,4.217 -78.52,1.97 -96.58,1.918 -8.27,-0.024 -18.89,-1.189 -26.74,1.592 -8.11,2.877 -8.9,9.7 -12.19,16.606 q 0.57,0.875 0.89,1.87 c 1.37,4.325 0.77,62.142 -0.73,65.016 l 183.1,0.079 c 1.48,2.631 1.12,6.421 1.16,9.374 0.19,15.676 3.38,39.693 -8.55,51.784 -2.54,2.565 -5.32,4.47 -8.94,4.986 -9.33,1.331 -19.18,0.739 -28.6,0.743 l -46.33,-0.002 -158.66,-0.004 c 0.47,-0.91 0.77,-1.74 0.81,-2.772 1.1,-28.454 0.04,-57.321 0.03,-85.835 l 0.03,-171.157001 c 0,-12.9458 -2.37,-58.2285 2.22,-68.269 3.09,-6.7566 8.58,-10.0173 15.24,-12.5044 z"
     id="path4" />
  <path
     fill="#fefefe"
     d="m 677.4729,0.5632487 c 32.842,-1.7003 70.238,15.2903003 94.276,36.9489003 36.28,32.6893 56.916,79.386001 59.36,128.043001 2.732,54.386 -10.098,107.39 -47.41,148.51 -24.205,26.675 -61.927,46.577 -98.21,48.288 -39.98,1.885 -76.178,-13.32 -105.527,-40.167 -9.971,-9.121 -19.716,-20.867 -26.743,-32.414 -2.24,-3.68 -6.349,-14.1 -9.805,-15.904 5.678,-7.738 48.186,-113.653 49.458,-121.503 3.822,-3.693 11.833,-24.529 15.291,-30.812 10.572,-19.207 26.753,-39.904601 47.878,-48.078501 7.039,-2.7236 14.54,-3.5467 21.726,-5.6375 0.369,-0.6766 0.673,-1.3855 0.803,-2.1503 1.219,-7.1358 0.848,-53.7522 0.12,-61.9900003 -0.106,-1.1978 -0.512,-2.1593 -1.217,-3.1336 z m 0.294,67.2739003 c -7.186,2.0908 -14.687,2.9139 -21.726,5.6375 -21.125,8.1739 -37.306,28.871501 -47.878,48.078501 -3.458,6.283 -11.469,27.119 -15.291,30.812 1.995,3.845 -1.029,20.188 -1.214,25.526 -1.026,29.64 7.473,62.914 26.656,85.993 13.739,16.531 33.255,29.047 54.988,31.016 18.134,1.642 37.932,-7.135 51.593,-18.592 23.239,-19.489 35.525,-49.475 38.099,-79.238 2.936,-33.956 -3.192,-71.25 -25.76,-98.013001 -15.667,-18.5804 -35.282,-29.1488 -59.467,-31.22 z"
     id="path5" />
  <path
     fill="#fefefe"
     d="m 902.3669,12.548549 c 16.552,-1.0916 33.654,-0.2721 50.262,-0.2718 33.009,7e-4 78.819,-1.7303 110.249,5.8374 31.05,7.4749 55.22,28.7431 71.59,55.6093 29.17,47.847701 33.84,111.202701 20.79,164.849701 -6.66,27.336 -19.5,55.981 -39.58,76.021 -2.79,2.784 -5.62,5.942 -8.99,7.995 -0.26,0.666 -0.8,1.341 -1.29,1.859 -10.26,10.881 -34.04,19.671 -48.5,22.531 -28.35,5.609 -58.69,4.474 -87.496,4.465 l -93.292,0.001 c 0.568,-0.926 1.016,-2.121 1.091,-3.207 0.644,-9.348 0.125,-19.048 0.125,-28.433 l -0.008,-55.23 0.016,-169.970001 -0.113,-35.5456 c -0.031,-6.899 -0.449,-14.0804 0.278,-20.9415 0.587,-5.5361 1.894,-11.1364 5.018,-15.8247 4.484,-6.7289 12.453,-8.2844 19.85,-9.7448 z m 61.996,60.8355 c -5.369,0.6956 -11.587,3.1238 -14.993,7.5414 -1.834,2.38 -2.368,5.0497 -2.705,7.9877 -2.592,22.572001 2.248,196.910001 -1.467,202.459001 21.564,0.05 43.11,0.295 64.65,-0.56 8.3,-0.329 16.83,-0.113 24.96,-1.976 7.77,-1.779 15.93,-5.328 21.65,-11.008 0.45,-0.452 0.95,-1.086 1.2,-1.677 6.83,-2.424 16.64,-19.58 19.74,-26.072 17.95,-37.646 19.06,-85.158 5.13,-124.291 -6.89,-19.354 -18.93,-38.394001 -38.07,-47.430301 -4.85,-2.2865 -9.78,-3.7155 -15.08,-4.4374 -9.53,-1.2999 -19.65,-0.6881 -29.26,-0.6632 -11.9,0.0308 -23.868,-0.1888 -35.755,0.1268 z"
     id="path6" />
</svg>
